<svg xmlns="http://www.w3.org/2000/svg" width="430" height="430" fill="none" viewBox="0 0 430 430"><path fill="url(#PI7x5RJ2Baa)" fill-rule="evenodd" d="M156.552 186.655a6 6 0 0 1 5.768-4.345h16.16a6 6 0 0 1 5.813 4.514l13.65 53.38a6 6 0 0 1-11.626 2.973l-2.053-8.027h-29.145l-2.352 8.195a6 6 0 0 1-11.535-3.31zm2.011 36.495h22.633l-7.375-28.84h-6.981z" clip-rule="evenodd"/><path fill="url(#T5ZeCWRl59b)" fill-rule="evenodd" d="M256.378 196.595a23.1 23.1 0 0 1 1.762 8.85v.005A23.14 23.14 0 0 1 235 228.59h-14v13.1a6 6 0 1 1-12 0v-53.37a6 6 0 0 1 6-6h20a23.14 23.14 0 0 1 16.361 6.77 23.1 23.1 0 0 1 5.017 7.505m-21.374-2.275a11.125 11.125 0 0 1 10.288 6.869A11.14 11.14 0 0 1 235 216.59h-14v-22.27z" clip-rule="evenodd"/><path fill="url(#EUgK5gb3BEc)" d="M281.26 188.41a6 6 0 0 0-12 0v53.28a6 6 0 1 0 12 0z"/><path fill="url(#JwL-ZJv9a0d)" fill-rule="evenodd" d="M214.999 104c-61.304 0-111 49.696-111 111s49.696 111 111 111 111-49.696 111-111-49.696-111-111-111m-99 111c0-54.676 44.324-99 99-99s99 44.324 99 99-44.324 99-99 99-99-44.324-99-99" clip-rule="evenodd"/><path fill="url(#bNmcSDE1oAe)" fill-rule="evenodd" d="M184.999 39c-14.359 0-26 11.64-26 26v12.423a148.3 148.3 0 0 0-35.157 20.34l-10.844-6.26c-12.435-7.18-28.336-2.92-35.516 9.516l-30 51.962c-7.18 12.435-2.92 28.337 9.517 35.516l10.867 6.275A150 150 0 0 0 66.499 215a150 150 0 0 0 1.367 20.228l-10.867 6.275c-12.436 7.179-16.697 23.081-9.517 35.516l30 51.962c7.18 12.435 23.081 16.696 35.516 9.516l10.844-6.26a148.4 148.4 0 0 0 35.157 20.34V365c0 14.359 11.641 26 26 26h60c14.359 0 26-11.641 26-26v-12.423a148.3 148.3 0 0 0 35.157-20.34l10.843 6.26c12.436 7.18 28.337 2.919 35.517-9.516l30-51.962c7.18-12.435 2.919-28.337-9.517-35.516l-10.867-6.275A150 150 0 0 0 363.499 215c0-6.859-.465-13.612-1.367-20.228l10.867-6.275c12.436-7.179 16.697-23.081 9.517-35.516l-30-51.962c-7.18-12.435-23.081-16.696-35.517-9.516l-10.843 6.26a148.3 148.3 0 0 0-35.157-20.34V65c0-14.36-11.641-26-26-26zm-14 26c0-7.732 6.268-14 14-14h60c7.732 0 14 6.268 14 14v16.519a6 6 0 0 0 3.895 5.618 136.4 136.4 0 0 1 38.893 22.501 6 6 0 0 0 6.818.567l14.394-8.31c6.696-3.866 15.259-1.572 19.125 5.124l30 51.962c3.866 6.696 1.571 15.258-5.125 19.124l-14.409 8.319a6 6 0 0 0-2.919 6.173A137.6 137.6 0 0 1 351.499 215c0 7.634-.626 15.117-1.828 22.403a6 6 0 0 0 2.919 6.173l14.409 8.319c6.696 3.866 8.991 12.428 5.125 19.124l-30 51.962c-3.866 6.696-12.429 8.99-19.125 5.124l-14.394-8.31a6 6 0 0 0-6.818.567 136.4 136.4 0 0 1-38.893 22.501 6 6 0 0 0-3.895 5.618V365c0 7.732-6.268 14-14 14h-60c-7.732 0-14-6.268-14-14v-16.519a6 6 0 0 0-3.894-5.618 136.4 136.4 0 0 1-38.895-22.501 6 6 0 0 0-6.817-.568l-14.395 8.311c-6.696 3.866-15.258 1.572-19.124-5.124l-30-51.962c-3.866-6.696-1.572-15.258 5.124-19.124l14.41-8.319a6 6 0 0 0 2.92-6.174A137.5 137.5 0 0 1 78.499 215c0-7.634.626-15.117 1.829-22.402a6 6 0 0 0-2.92-6.174l-14.41-8.319c-6.696-3.866-8.99-12.428-5.124-19.124l30-51.962c3.866-6.696 12.428-8.99 19.124-5.124l14.395 8.311a6 6 0 0 0 6.817-.568 136.4 136.4 0 0 1 38.895-22.5 6 6 0 0 0 3.894-5.62z" clip-rule="evenodd"/><defs><linearGradient id="PI7x5RJ2Baa" x1="155.874" x2="344.287" y1="117.171" y2="323.373" gradientUnits="userSpaceOnUse"><stop stop-color="#cb5eee"/><stop offset="1" stop-color="#4be1ec"/></linearGradient><linearGradient id="T5ZeCWRl59b" x1="155.874" x2="344.287" y1="117.171" y2="323.373" gradientUnits="userSpaceOnUse"><stop stop-color="#cb5eee"/><stop offset="1" stop-color="#4be1ec"/></linearGradient><linearGradient id="EUgK5gb3BEc" x1="155.874" x2="344.287" y1="117.171" y2="323.373" gradientUnits="userSpaceOnUse"><stop stop-color="#cb5eee"/><stop offset="1" stop-color="#4be1ec"/></linearGradient><linearGradient id="JwL-ZJv9a0d" x1="155.874" x2="344.287" y1="117.171" y2="323.373" gradientUnits="userSpaceOnUse"><stop stop-color="#cb5eee"/><stop offset="1" stop-color="#4be1ec"/></linearGradient><linearGradient id="bNmcSDE1oAe" x1="155.874" x2="344.287" y1="117.171" y2="323.373" gradientUnits="userSpaceOnUse"><stop stop-color="#cb5eee"/><stop offset="1" stop-color="#4be1ec"/></linearGradient></defs></svg>